<svg width="576" height="752" viewBox="0 0 576 752" fill="none" xmlns="http://www.w3.org/2000/svg">
<path d="M447 240.5L444.724 244.952L444.744 244.962L444.764 244.972L447 240.5ZM514.5 303L510.175 305.509L510.194 305.541L510.213 305.572L514.5 303ZM523.5 474.5L518.875 472.599L518.864 472.627L518.853 472.654L523.5 474.5ZM480 533L483.011 536.992L483.022 536.983L480 533ZM368 544L365.373 548.254L365.4 548.271L365.428 548.287L368 544ZM345 514.5L349.768 512.994L346.761 503.473L340.938 511.584L345 514.5ZM309 545L311.154 549.512L311.195 549.493L311.236 549.472L309 545ZM202.5 533.5L198.845 536.912L198.884 536.954L198.924 536.995L202.5 533.5ZM196.5 404L201.027 406.122L201.034 406.109L201.04 406.095L196.5 404ZM238 352L240.963 356.027L238 352ZM354.5 362.5L350.028 364.736L356.869 378.418L359.429 363.337L354.5 362.5ZM359 336V331H354.777L354.071 335.163L359 336ZM428 336L432.925 336.863L433.953 331H428V336ZM406 461.5L401.075 460.637L401.072 460.657L401.068 460.678L406 461.5ZM460.5 469L455.889 467.066L455.881 467.085L455.873 467.104L460.5 469ZM437 308L433.65 311.711L433.662 311.723L433.675 311.734L437 308ZM233.5 302.5L230.969 298.188L230.959 298.194L230.948 298.2L233.5 302.5ZM162 376.5L166.364 378.94L166.37 378.93L166.375 378.92L162 376.5ZM171 573L167.543 576.612L167.556 576.624L167.568 576.636L171 573ZM358.5 588.5L363.353 587.298L361.898 581.425L356.405 583.96L358.5 588.5ZM372 643L374.009 647.579L377.866 645.886L376.853 641.798L372 643ZM161.5 642.5L159.223 646.951L159.233 646.957L159.243 646.962L161.5 642.5ZM95 580L90.6753 582.509L95 580ZM107 349L111.321 351.515L111.326 351.507L111.33 351.5L107 349ZM204.5 253L206.931 257.369L206.943 257.363L204.5 253ZM315 485.5L312.188 481.365L312.149 481.392L312.11 481.42L315 485.5ZM334.5 463L330.059 460.703L330.043 460.733L330.028 460.764L334.5 463ZM332.5 404.5L328.716 407.768L328.754 407.812L328.792 407.855L332.5 404.5ZM270 412.5L273.975 415.533L270 412.5ZM264 484L267.81 480.762L264 484ZM344 223C382.694 223 416.219 230.376 444.724 244.952L449.276 236.048C419.114 220.624 383.973 213 344 213V223ZM444.764 244.972C473.271 259.226 495.024 279.397 510.175 305.509L518.825 300.491C502.643 272.603 479.396 251.108 449.236 236.028L444.764 244.972ZM510.213 305.572C525.69 331.368 533.5 361.29 533.5 395.5H543.5C543.5 359.71 535.31 327.965 518.787 300.428L510.213 305.572ZM533.5 395.5C533.5 423.232 528.609 448.914 518.875 472.599L528.125 476.401C538.391 451.419 543.5 424.435 543.5 395.5H533.5ZM518.853 472.654C509.496 496.209 495.528 514.944 476.978 529.017L483.022 536.983C503.139 521.722 518.171 501.457 528.147 476.346L518.853 472.654ZM476.989 529.008C458.949 542.617 437.369 549.5 412 549.5V559.5C439.298 559.5 463.051 552.049 483.011 536.992L476.989 529.008ZM412 549.5C394.975 549.5 381.263 546.127 370.572 539.713L365.428 548.287C378.071 555.873 393.692 559.5 412 559.5V549.5ZM370.627 539.746C360.311 533.374 353.406 524.514 349.768 512.994L340.232 516.006C344.594 529.819 353.023 540.626 365.373 548.254L370.627 539.746ZM340.938 511.584C332.09 523.908 320.723 533.548 306.764 540.528L311.236 549.472C326.61 541.785 339.243 531.092 349.062 517.416L340.938 511.584ZM306.846 540.488C292.897 547.145 277.639 550.5 261 550.5V560.5C279.028 560.5 295.77 556.855 311.154 549.512L306.846 540.488ZM261 550.5C237.386 550.5 219.282 543.518 206.076 530.005L198.924 536.995C214.385 552.815 235.28 560.5 261 560.5V550.5ZM206.155 530.088C193.222 516.231 186.5 497.232 186.5 472.5H176.5C176.5 499.101 183.778 520.769 198.845 536.912L206.155 530.088ZM186.5 472.5C186.5 448.875 191.349 426.769 201.027 406.122L191.973 401.878C181.651 423.897 176.5 447.458 176.5 472.5H186.5ZM201.04 406.095C210.718 385.126 224.036 368.483 240.963 356.027L235.037 347.973C216.631 361.517 202.282 379.54 191.96 401.905L201.04 406.095ZM240.963 356.027C257.768 343.661 276.563 337.5 297.5 337.5V327.5C274.437 327.5 253.565 334.339 235.037 347.973L240.963 356.027ZM297.5 337.5C324.177 337.5 341.103 346.887 350.028 364.736L358.972 360.264C347.897 338.113 326.823 327.5 297.5 327.5V337.5ZM359.429 363.337L363.929 336.837L354.071 335.163L349.571 361.663L359.429 363.337ZM359 341H428V331H359V341ZM423.075 335.137L401.075 460.637L410.925 462.363L432.925 336.863L423.075 335.137ZM401.068 460.678C400.036 466.873 399.5 472.49 399.5 477.5H409.5C409.5 473.177 409.964 468.127 410.932 462.322L401.068 460.678ZM399.5 477.5C399.5 485.466 401.252 492.374 405.633 497.317C410.116 502.374 416.562 504.5 424 504.5V494.5C418.438 494.5 415.134 492.959 413.117 490.683C410.998 488.293 409.5 484.201 409.5 477.5H399.5ZM424 504.5C433.16 504.5 441.339 501.554 448.331 495.712C455.233 489.945 460.764 481.541 465.127 470.896L455.873 467.104C451.903 476.793 447.184 483.639 441.919 488.038C436.744 492.363 430.84 494.5 424 494.5V504.5ZM465.111 470.934C474.078 449.55 478.5 425.207 478.5 398H468.5C468.5 424.126 464.255 447.117 455.889 467.066L465.111 470.934ZM478.5 398C478.5 358.516 465.914 327.051 440.325 304.266L433.675 311.734C456.752 332.283 468.5 360.817 468.5 398H478.5ZM440.351 304.289C415.151 281.539 379.965 270.5 335.5 270.5V280.5C378.368 280.5 410.849 291.128 433.65 311.711L440.351 304.289ZM335.5 270.5C297.323 270.5 262.442 279.715 230.969 298.188L236.031 306.812C265.891 289.285 299.01 280.5 335.5 280.5V270.5ZM230.948 298.2C199.839 316.661 175.381 341.981 157.625 374.08L166.375 378.92C183.285 348.352 206.494 324.339 236.052 306.8L230.948 298.2ZM157.636 374.06C139.864 405.844 131 440.858 131 479H141C141 442.476 149.469 409.156 166.364 378.94L157.636 374.06ZM131 479C131 520.336 142.99 553.112 167.543 576.612L174.457 569.388C152.343 548.221 141 518.33 141 479H131ZM167.568 576.636C192.416 600.084 226.787 611.5 270 611.5V601.5C228.546 601.5 196.917 590.582 174.432 569.364L167.568 576.636ZM270 611.5C303.614 611.5 333.845 605.386 360.595 593.04L356.405 583.96C331.155 595.614 302.386 601.5 270 601.5V611.5ZM353.647 589.702L367.147 644.202L376.853 641.798L363.353 587.298L353.647 589.702ZM369.991 638.421C338.04 652.44 302.072 659.5 262 659.5V669.5C303.262 669.5 340.626 662.226 374.009 647.579L369.991 638.421ZM262 659.5C224.651 659.5 191.948 652.296 163.757 638.038L159.243 646.962C189.052 662.038 223.349 669.5 262 669.5V659.5ZM163.777 638.049C135.937 623.805 114.494 603.633 99.3247 577.491L90.6753 582.509C106.84 610.367 129.73 631.862 159.223 646.951L163.777 638.049ZM99.3247 577.491C84.1644 551.363 76.5 520.756 76.5 485.5H66.5C66.5 522.244 74.5023 554.637 90.6753 582.509L99.3247 577.491ZM76.5 485.5C76.5 435.986 88.1303 391.365 111.321 351.515L102.679 346.485C78.5364 387.969 66.5 434.347 66.5 485.5H76.5ZM111.33 351.5C134.545 311.282 166.389 279.929 206.931 257.369L202.069 248.631C159.944 272.071 126.788 304.718 102.67 346.5L111.33 351.5ZM206.943 257.363C247.808 234.478 293.456 223 344 223V213C291.877 213 244.526 224.855 202.057 248.637L206.943 257.363ZM289 499C299.423 499 309.09 495.813 317.89 489.58L312.11 481.42C304.91 486.52 297.244 489 289 489V499ZM317.812 489.635C326.877 483.47 333.937 475.306 338.972 465.236L330.028 460.764C325.729 469.361 319.789 476.197 312.188 481.365L317.812 489.635ZM338.941 465.297C344.312 454.913 347 443.79 347 432H337C337 442.21 334.688 451.754 330.059 460.703L338.941 465.297ZM347 432C347 419.689 343.533 409.242 336.208 401.145L328.792 407.855C334.133 413.758 337 421.644 337 432H347ZM336.284 401.232C328.867 392.643 318.734 388.5 306.5 388.5V398.5C316.266 398.5 323.467 401.69 328.716 407.768L336.284 401.232ZM306.5 388.5C290.125 388.5 276.543 395.684 266.025 409.467L273.975 415.533C282.79 403.982 293.542 398.5 306.5 398.5V388.5ZM266.025 409.467C255.634 423.083 250.5 439.173 250.5 457.5H260.5C260.5 441.161 265.033 427.251 273.975 415.533L266.025 409.467ZM250.5 457.5C250.5 469.372 253.574 479.454 260.19 487.238L267.81 480.762C263.093 475.213 260.5 467.628 260.5 457.5H250.5ZM260.19 487.238C267.043 495.3 276.942 499 289 499V489C279.058 489 272.29 486.033 267.81 480.762L260.19 487.238Z" fill="#8FDDFF"/>
<path d="M309 216C348.333 216 382.667 223.5 412 238.5C441.333 253.167 463.833 274 479.5 301C495.5 327.667 503.5 358.5 503.5 393.5C503.5 421.833 498.5 448.167 488.5 472.5C478.833 496.833 464.333 516.333 445 531C426 545.333 403.333 552.5 377 552.5C359.333 552.5 344.667 549 333 542C321.667 535 314 525.167 310 512.5C300.667 525.5 288.667 535.667 274 543C259.333 550 243.333 553.5 226 553.5C201.333 553.5 181.833 546.167 167.5 531.5C153.5 516.5 146.5 496.167 146.5 470.5C146.5 446.167 151.5 423.333 161.5 402C171.5 380.333 185.333 363 203 350C220.667 337 240.5 330.5 262.5 330.5C290.5 330.5 309.5 340.5 319.5 360.5L324 334H393L371 459.5C370 465.5 369.5 470.833 369.5 475.5C369.5 490.167 376 497.5 389 497.5C405 497.5 417.167 487.333 425.5 467C434.167 446.333 438.5 422.667 438.5 396C438.5 357.667 426.333 327.667 402 306C378 284.333 344.167 273.5 300.5 273.5C263.167 273.5 229.167 282.5 198.5 300.5C168.167 318.5 144.333 343.167 127 374.5C109.667 405.5 101 439.667 101 477C101 517.333 112.667 548.667 136 571C159.667 593.333 192.667 604.5 235 604.5C268 604.5 297.5 598.5 323.5 586.5L337 641C304.333 655.333 267.667 662.5 227 662.5C189 662.5 155.5 655.167 126.5 640.5C97.8333 625.833 75.6667 605 60 578C44.3333 551 36.5 519.5 36.5 483.5C36.5 433.167 48.3333 387.667 72 347C95.6667 306 128.167 274 169.5 251C211.167 227.667 257.667 216 309 216ZM254 492C263.333 492 272 489.167 280 483.5C288.333 477.833 294.833 470.333 299.5 461C304.5 451.333 307 441 307 430C307 418.667 303.833 409.5 297.5 402.5C291.167 395.167 282.5 391.5 271.5 391.5C256.833 391.5 244.667 397.833 235 410.5C225.333 423.167 220.5 438.167 220.5 455.5C220.5 466.5 223.333 475.333 229 482C234.667 488.667 243 492 254 492Z" fill="#15AAF9"/>
</svg>
