<?xml version="1.0" encoding="UTF-8"?>
<svg id="Camada_1" data-name="Camada 1" xmlns="http://www.w3.org/2000/svg" width="2920" height="1640.73794" viewBox="0 0 2920 1640.73794">
  <rect x=".01446" width="2919.83407" height="1640.73794" style="fill: #083372;"/>
  <path d="M.01446,1205.94687c87.82931-36.56153,160.40923-52.23702,205.12418-59.78397,316.22758-53.3727,601.10777,69.86749,797.88614,52.88583,9.73753-.84032,91.41493-8.25094,191.89474-24.77421,29.8081-4.90177,47.49334-8.33492,62.93435-11.62687,46.15703-9.84048,91.67103-22.46563,136.39341-37.82581,186.88872-64.0155,355.42251-174.44977,492.40339-316.43676,16.83816-17.44498,33.22134-35.34502,49.14936-53.70023l20.47889,16.53484c-55.5205,105.42834-81.00541,211.61515-79.64011,302.63242,.91014,58.55441,11.83232,151.24038,81.91554,211.31174,59.16123,50.66632,133.18868,52.33493,211.61515,52.94175,27.47017,.24709,48.70105-1.23891,67.393-3.86002,82.32848-11.54463,141.7234-26.68045,167.12813-34.06384,64.58945-18.77166,232.80678-67.66086,398.75145-27.55274,51.88329,12.53997,91.95611,30.9788,116.40644,43.68829,.05055,108.08965,.10092,216.17931,.15147,324.26897H.16593c-.04186-40.89492-.11317-136.15259-.13254-177.04753-.03604-76.08705-.04378-181.50476-.01893-257.59187Z" style="fill: #81a3cc;"/>
  <path d="M.00017,1316.31726c30.36455-23.29061,81.99483-58.58246,152.25265-85.07718,224.61461-84.70377,368.22193,22.85197,707.11636,24.19151,189.87698,.75051,332.01064-32.31982,383.63783-45.35698,90.10713-22.75432,280.78824-70.99345,472.68298-220.71688,66.44268-51.87986,127.72749-110.13086,182.94467-173.84295l47.63241-68.1112,12.13564,10.922-42.47473,71.29686s-40.19929,86.92147-58.25109,191.89474c-10.20907,59.36737-19.99484,206.76555,75.24091,300.50865,62.02459,61.05237,141.61989,71.204,187.60738,77.06928,100.00826,12.75509,130.74622-19.56618,321.35122-53.50637,118.27097-21.05999,181.33476-31.7554,262.69219-20.07391,96.00718,13.78492,169.68132,51.86646,215.3218,80.48203-.01407,78.24703-.02796,156.49405-.04203,234.74107H.01427L.00017,1316.31726Z" style="fill: #fff;"/>
  <g>
    <path d="M2238.58412,574.47068c102.69774-142.74543,102.09111-246.20172,97.84356-281.54676-.91014-7.88816-8.03993-13.50089-15.92802-12.74241-35.49677,3.3373-136.67756,24.87804-254.24154,155.63954,0,0-69.93156,77.36468-94.80966,186.4337l52.63825,42.32302,52.63825,42.32302c101.18098-47.48066,161.85915-132.43011,161.85915-132.43011Z" style="fill: #2c1dfe;"/>
    <g>
      <polygon points="2027.12081 730.11018 1958.4027 673.6795 1984.64609 649.86329 2044.8691 699.31602 2027.12081 730.11018" style="fill: #2c1dfe;"/>
      <rect x="2001.10965" y="613.24505" width="41.86863" height="107.70564" transform="translate(234.111 1823.37512) rotate(-51.1496)" style="fill: #2c1dfe;"/>
    </g>
    <path d="M2055.33613,491.18984l-106.18681,23.51279c-13.80425,3.03391-25.78823,11.68057-33.22134,23.8162l-72.81382,121.35636c-3.18557,5.30934-1.51695,12.13564,3.79239,15.16954,.60682,.30341,1.21364,.60677,1.82027,.91018h0c4.0957,1.51695,8.64657,.45507,11.68048-2.57884,19.87207-19.72041,96.02329-90.4105,158.06658-78.42657l36.86225-103.75968Z" style="fill: #15aaf9;"/>
    <path d="M2188.37296,598.28684l-.30332,108.76561c0,14.25936-5.91616,27.76025-16.23134,37.46879l-103.15291,97.08509c-4.39921,4.24745-11.52882,3.94404-15.62471-.45507-.45516-.45507-.91014-1.06189-1.21364-1.66861h0c-2.27543-3.64073-2.42709-8.34325,0-11.98398,15.01789-23.66445,67.80779-113.01311,42.92989-171.11245l93.59602-58.09938Z" style="fill: #15aaf9;"/>
    <path d="M1947.93568,771.97813l-11.2255-9.10173c-2.57875-1.97202-2.88225-5.61275-.91014-8.19154l153.66756-199.02445c2.42709-3.18561,6.97795-3.79239,10.31536-1.36525,0,0,.15166,0,.15166,.1517l17.14166,13.8043c3.18557,2.57884,3.64073,7.1297,1.06179,10.31527,0,0,0,.1517-.15166,.1517l-161.70731,192.50152c-2.12396,2.42714-5.7645,2.73055-8.34343,.75848Z" style="fill: #15aaf9;"/>
    <g>
      <circle cx="2184.42892" cy="466.91857" r="57.64427" style="fill: #15aaf9;"/>
      <path d="M2214.00953,490.73478c-12.89411,16.07973-36.55857,18.65852-52.63825,5.61275-16.07968-12.89411-18.65861-36.55861-5.61266-52.63834,13.04596-16.07973,36.55857-18.65852,52.63825-5.61275h0c15.92802,13.04582,18.50677,36.55861,5.61266,52.63834Z" style="fill: #301061;"/>
    </g>
  </g>
  <path d="M2263.00723,972.06442l1.97211,3.79239c.75848,1.3653,1.82027,2.42709,3.03391,3.03391l3.79239,1.97202c.15166,0,.15166,.15166,.15166,.30341l-.15166,.15166-3.79239,1.97202c-1.3653,.75848-2.42709,1.82036-3.03391,3.03391l-1.97211,3.79239c0,.15166-.15166,.15166-.30332,.15166l-.15166-.15166-1.97211-3.79239c-.75848-1.3653-1.82027-2.42709-3.03391-3.03391l-3.79239-1.97202c-.15166,0-.15166-.15166-.15166-.30341l.15166-.15166,3.79239-1.97202c1.3653-.75848,2.42709-1.82036,3.03391-3.03391l1.97211-3.79239c.15147-.15166,.30313-.15166,.45498,0h0Z" style="fill: #fff;"/>
  <path d="M2448.83416,593.88768l1.97211,3.79239c.75848,1.36525,1.82027,2.42714,3.03391,3.03391l3.79239,1.97202c.15166,0,.15166,.1517,.15166,.30341l-.15166,.1517-3.79239,1.97202c-1.3653,.75848-2.42709,1.82036-3.03391,3.03391l-1.97211,3.79239c0,.1517-.15166,.1517-.30332,.1517l-.15166-.1517-1.97211-3.79239c-.75848-1.36525-1.82027-2.42714-3.03391-3.03391l-3.79239-1.97202c-.15166,0-.15166-.1517-.15166-.30341l.15166-.1517,3.79239-1.97202c1.3653-.75848,2.42709-1.82036,3.03391-3.03391l1.97211-3.79239c.15147-.1517,.30313-.1517,.45498,0h0Z" style="fill: #fff;"/>
  <path d="M2337.94464,642.73363l1.97211,3.79239c.75848,1.36525,1.82027,2.42714,3.03391,3.03391l3.79239,1.97202c.15166,0,.15166,.1517,.15166,.30341l-.15166,.1517-3.79239,1.97202c-1.3653,.75848-2.42709,1.82036-3.03391,3.03391l-1.97211,3.79239c0,.1517-.15166,.1517-.30332,.1517l-.15166-.1517-1.97211-3.79239c-.75848-1.36525-1.82027-2.42714-3.03391-3.03391l-3.79239-1.97202c-.15166,0-.15166-.1517-.15166-.30341l.15166-.1517,3.79239-1.97202c1.3653-.75848,2.42709-1.82036,3.03391-3.03391l1.97211-3.79239c.15166-.1517,.30332-.1517,.45498,0q0-.1517,0,0Z" style="fill: #fff;"/>
  <path d="M1683.98559,327.81387l1.97211,3.79239c.75848,1.36525,1.82027,2.42714,3.03391,3.03391l3.79239,1.97205c.15166,0,.15166,.1517,.15166,.30339l-.15166,.1517-3.79239,1.97205c-1.3653,.75848-2.42709,1.82034-3.03391,3.03391l-1.97211,3.79239c0,.1517-.15166,.1517-.30332,.1517l-.15166-.1517-1.97211-3.79239c-.75848-1.36525-1.82027-2.42714-3.03391-3.03391l-3.79239-1.97205c-.15166,0-.15166-.1517-.15166-.30339l.15166-.1517,3.79239-1.97205c1.3653-.75848,2.42709-1.82034,3.03391-3.03391l1.97211-3.79239c.15166-.1517,.30332-.1517,.45498,0q0-.1517,0,0Z" style="fill: #fff;"/>
  <path d="M2400.89825,187.79897l1.97211,3.79239c.75848,1.36526,1.82027,2.42712,3.03391,3.03391l3.79239,1.97205c.15166,0,.15166,.1517,.15166,.30339l-.15166,.1517-3.79239,1.97205c-1.3653,.75848-2.42709,1.82034-3.03391,3.03391l-1.97211,3.79239c0,.1517-.15166,.1517-.30332,.1517l-.15166-.1517-1.97211-3.79239c-.75848-1.36525-1.82027-2.42714-3.03391-3.03391l-3.79239-1.97205c-.15166,0-.15166-.1517-.15166-.30339l.15166-.1517,3.79239-1.97205c1.3653-.75848,2.42709-1.82034,3.03391-3.03391l1.97211-3.79239c.15166,0,.30332-.1517,.45498,0h0Z" style="fill: #fff;"/>
  <path d="M1645.91007,573.10539l1.21364,2.12373c.45516,.75848,1.06179,1.36525,1.82027,1.82036l2.12377,1.21355s.15166,.1517,0,.1517h0l-2.12377,1.21355c-.75848,.45507-1.3653,1.06189-1.82027,1.82036l-1.21364,2.12373s-.15166,.1517-.15166,0h0l-1.21364-2.12373c-.45516-.75848-1.06179-1.36525-1.82027-1.82036l-2.12377-1.21355s-.15166-.1517,0-.1517h0l2.12377-1.21355c.75848-.45507,1.3653-1.06189,1.82027-1.82036l1.21364-2.12373h.15166Z" style="fill: #fff;"/>
  <path d="M1379.38115,340.2529l1.97202,3.79239c.75848,1.36525,1.82036,2.42714,3.03391,3.03391l3.79239,1.97205c.15166,0,.15166,.1517,.15166,.30339l-.15166,.1517-3.79239,1.97205c-1.3653,.75848-2.42709,1.82034-3.03391,3.03391l-1.97202,3.79239c0,.1517-.15166,.1517-.30341,.1517l-.15166-.1517-1.97202-3.79239c-.75848-1.36525-1.82036-2.42714-3.03391-3.03391l-3.79239-1.97205c-.15166,0-.15166-.1517-.15166-.30339l.15166-.1517,3.79239-1.97205c1.3653-.75848,2.42709-1.82034,3.03391-3.03391l1.97202-3.79239c.15166-.1517,.30341-.1517,.45507,0,0-.1517,0,0,0,0Z" style="fill: #fff;"/>
  <path d="M2439.73243,869.66999l1.97211,3.79239c.75848,1.3653,1.82027,2.42709,3.03391,3.03391l3.79239,1.97202c.15166,0,.15166,.15166,.15166,.30341l-.15166,.15166-3.79239,1.97202c-1.3653,.75848-2.42709,1.82036-3.03391,3.03391l-1.97211,3.79239c0,.15166-.15166,.15166-.30332,.15166l-.15166-.15166-1.97211-3.79239c-.75848-1.3653-1.82027-2.42709-3.03391-3.03391l-3.79239-1.97202c-.15166,0-.15166-.15166-.15166-.30341l.15166-.15166,3.79239-1.97202c1.3653-.75848,2.42709-1.82036,3.03391-3.03391l1.97211-3.79239c.15147,0,.15147-.15166,.45498,0-.15184,0,0,0,0,0Z" style="fill: none; stroke: #fff; stroke-miterlimit: 10; stroke-width: .4471px;"/>
  <path d="M1470.09501,848.43263l1.97202,3.79239c.75848,1.3653,1.82036,2.42709,3.03391,3.03391l3.79239,1.97202c.15166,0,.15166,.15166,.15166,.30341l-.15166,.15166-3.79239,1.97202c-1.3653,.75848-2.42709,1.82036-3.03391,3.03391l-1.97202,3.79239c0,.15166-.15166,.15166-.30341,.15166l-.15166-.15166-1.97202-3.79239c-.75848-1.3653-1.82036-2.42709-3.03391-3.03391l-3.79239-1.97202c-.15166,0-.15166-.15166-.15166-.30341l.15166-.15166,3.79239-1.97202c1.3653-.75848,2.42709-1.82036,3.03391-3.03391l1.97202-3.79239c.15175-.15166,.30341-.15166,.45507,0q0-.15166,0,0Z" style="fill: #fff;"/>
  <path d="M1777.42995,318.56044l1.97211,3.79239c.75848,1.36525,1.82027,2.42714,3.03391,3.03391l3.79239,1.97205c.15166,0,.15166,.1517,.15166,.30339l-.15166,.1517-3.79239,1.97205c-1.3653,.75848-2.42709,1.82034-3.03391,3.03391l-1.97211,3.79239c0,.1517-.15166,.1517-.30332,.1517l-.15166-.1517-1.97211-3.79239c-.75848-1.36525-1.82027-2.42714-3.03391-3.03391l-3.79239-1.97205c-.15166,0-.15166-.1517-.15166-.30339l.15166-.1517,3.79239-1.97205c1.3653-.75848,2.42709-1.82034,3.03391-3.03391l1.97211-3.79239h.45498q-.15166,0,0,0Z" style="fill: #fff;"/>
  <circle cx="2221.74596" cy="1205.67541" r="8.34325" style="fill: #d74c8e;"/>
  <circle cx="2117.22776" cy="1104.34287" r="8.34325" style="fill: #d74c8e;"/>
  <circle cx="2432.60263" cy="1153.79555" r="8.34325" style="fill: #d74c8e;"/>
  <path d="M1423.97965,220.41349l1.21355,2.12373c.45507,.75848,1.06189,1.36525,1.82036,1.82034l2.12377,1.21357s.15166,.1517,0,.1517h0l-2.12377,1.21357c-.75848,.45509-1.3653,1.06186-1.82036,1.82034l-1.21355,2.12373s-.15166,.1517-.15166,0h0l-1.21355-2.12373c-.45507-.75848-1.06189-1.36525-1.82036-1.82034l-2.12377-1.21357s-.15166-.1517,0-.1517h0l2.12377-1.21357c.75848-.45509,1.3653-1.06186,1.82036-1.82034l1.21355-2.12373q-.00009,0,.15166,0h0Z" style="fill: #fff;"/>
  <path d="M1315.51741,573.10539l1.21355,2.12373c.45507,.75848,1.06189,1.36525,1.82036,1.82036l2.12377,1.21355s.15166,.1517,0,.1517h0l-2.12377,1.21355c-.75848,.45507-1.3653,1.06189-1.82036,1.82036l-1.21355,2.12373s-.15166,.1517-.15166,0h0l-1.21355-2.12373c-.45507-.75848-1.06189-1.36525-1.82036-1.82036l-2.12377-1.21355s-.15166-.1517,0-.1517h0l2.12377-1.21355c.75848-.45507,1.3653-1.06189,1.82036-1.82036l1.21355-2.12373q-.00009,0,.15166,0h0Z" style="fill: #fff;"/>
  <path d="M1591.29971,634.99716c5.30934,0,5.30934-8.19154,0-8.19154s-5.30934,8.19154,0,8.19154Z" style="fill: #fff;"/>
  <path d="M1938.83395,478.75085c5.30934,0,5.30934-8.19154,0-8.19154-5.15768,0-5.15768,8.19154,0,8.19154Z" style="fill: #fff;"/>
  <path d="M1927.15347,216.92449c5.30934,0,5.30934-8.19154,0-8.19154-5.15768,.15168-5.15768,8.19154,0,8.19154Z" style="fill: #fff;"/>
  <path d="M1368.61081,373.1708h0c.15166-.1517,0-.1517,0-.1517q-.15175,0,0,.1517-.15175,0,0,0Z" style="fill: #fff;"/>
  <path d="M1513.0249,431.72526q.15166,0,0,0c.15166-.1517,0-.1517,0-.1517v.1517h0Z" style="fill: #fff;"/>
  <path d="M1536.53769,467.82875c.60682,0,1.06189-.45507,.91014-1.06189,0-.60677-.45507-.91018-.91014-.91018-.60682,0-1.06189,.45507-.91014,1.06189-.00009,.45511,.30332,.91018,.91014,.91018Z" style="fill: #fff;"/>
  <path d="M1434.90174,655.32434c.60682,0,1.06189-.45507,.91014-1.06189,0-.60677-.45507-.91018-.91014-.91018-.60682,0-1.06189,.45507-.91014,1.06189-.00009,.45511,.45498,.91018,.91014,.91018Z" style="fill: #fff;"/>
  <path d="M1489.66376,542.00782c.60682,0,1.06189-.45507,.91014-1.06189,0-.60677-.45507-.91018-.91014-.91018-.60682,0-1.06189,.45507-.91014,1.06189,0,.45511,.30332,.91018,.91014,.91018Z" style="fill: #fff;"/>
  <path d="M1591.29971,389.7056c.60682,0,1.06179-.45507,.91014-1.06189,0-.60677-.45516-.91018-.91014-.91018-.60682,0-1.06179,.45509-.91014,1.06189-.15166,.45511,.30332,.91018,.91014,.91018Z" style="fill: #fff;"/>
  <path d="M1505.28837,468.89064c1.06189,0,1.97202-.91018,1.97202-2.12373,0-1.06189-.91014-1.97202-1.97202-1.97202s-1.97202,.91018-1.97202,2.12373c0,1.06184,.91014,1.97202,1.97202,1.97202Z" style="fill: #fff;"/>
  <path d="M1470.09501,617.24877c1.06189,0,1.97202-.91018,1.97202-2.12373,0-1.06189-.91014-1.97202-1.97202-1.97202s-1.97202,.91018-1.97202,2.12373c.15175,1.06184,.91023,1.97202,1.97202,1.97202Z" style="fill: #fff;"/>
  <path d="M1712.35275,730.56529c1.06179,0,1.97211-.91018,1.97211-2.12373,0-1.06189-.91014-1.97202-1.97211-1.97202-1.06179,0-1.97211,.91018-1.97211,2.12373,0,1.06184,.91014,1.97202,1.97211,1.97202Z" style="fill: #fff;"/>
  <path d="M2122.5371,289.13153c1.06179,0,1.97211-.91018,1.97211-2.12373,0-1.06186-.91014-1.97205-1.97211-1.97205-1.06179,0-1.97211,.91018-1.97211,2.12373,.00019,1.06186,.91032,1.97205,1.97211,1.97205Z" style="fill: #fff;"/>
  <path d="M1696.72805,250.14579c1.06179,0,1.97211-.91018,1.97211-2.12373,0-1.06186-.91014-1.97205-1.97211-1.97205-1.06179,0-1.97211,.91018-1.97211,2.12373,0,1.06189,.91032,1.82036,1.97211,1.97205Z" style="fill: #fff;"/>
  <path d="M2356.90657,1101.76403c1.06179,0,1.97211-.91014,1.97211-2.12377,0-1.06189-.91014-1.97202-1.97211-1.97202-1.06179,0-1.97211,.91014-1.97211,2.12377,.00019,1.06189,.91032,1.82036,1.97211,1.97202Z" style="fill: #fff;"/>
  <path d="M2071.71912,964.93471c1.06179,0,1.97211-.91014,1.97211-2.12377,0-1.06189-.91014-1.97202-1.97211-1.97202-1.06179,0-1.97211,.91014-1.97211,2.12377,.00019,1.06189,.91032,1.97202,1.97211,1.97202Z" style="fill: #fff;"/>
  <path d="M1935.04156,1133.01334c1.06179,0,1.97211-.91014,1.97211-2.12377,0-1.06189-.91014-1.97202-1.97211-1.97202-1.06179,0-1.97211,.91014-1.97211,2.12377,.00019,1.06179,.91032,1.82027,1.97211,1.97202Z" style="fill: #fff;"/>
  <path d="M2302.14455,757.87047c1.06179,0,1.97211-.91018,1.97211-2.12373,0-1.06189-.91014-1.97202-1.97211-1.97202-1.06179,0-1.97211,.91018-1.97211,2.12373,.15184,1.21355,.91032,1.97202,1.97211,1.97202Z" style="fill: #fff;"/>
  <path d="M555.97828,195.38374c1.06189,0,1.97202-.91018,1.97202-2.12374,0-1.06186-.91018-1.97205-1.97202-1.97205s-1.97202,.91017-1.97202,2.12374c.15166,1.06186,.91014,1.97205,1.97202,1.97205Z" style="fill: #fff;"/>
  <path d="M891.98369,238.31356c1.06189,0,1.97202-.91018,1.97202-2.12373,0-1.06186-.91014-1.97205-1.97202-1.97205s-1.97202,.91018-1.97202,2.12373,.91014,1.97205,1.97202,1.97205Z" style="fill: #fff;"/>
  <path d="M1134.24134,199.32781c1.06189,0,1.97202-.91018,1.97202-2.12373,0-1.06186-.91014-1.97205-1.97202-1.97205s-1.97202,.91018-1.97202,2.12373c0,1.06189,.91014,1.97205,1.97202,1.97205Z" style="fill: #fff;"/>
  <path d="M1079.47923,398.50396c1.06189,0,1.97202-.91018,1.97202-2.12373,0-1.06189-.91014-1.97202-1.97202-1.97202s-1.97202,.91018-1.97202,2.12373c0,1.06184,.91023,1.97202,1.97202,1.97202Z" style="fill: #fff;"/>
</svg>