<svg xmlns="http://www.w3.org/2000/svg" width="500" height="500" viewBox="0 0 500 500">
  <g id="DESIGNED_BY_FREEPIK" data-name="DESIGNED BY FREEPIK">
    <g>
      <g>
        <path d="M429.53487,328.55052c8.711,7.954,6.17933,14.474-5.6068,14.474H152.87768c-11.79216,0-14.3295-6.52-5.60116-14.474l15.42195-14.10423c8.71706-7.9536,25.46888-14.46275,37.27237-14.46275H376.8406c11.78044,0,28.53226,6.50915,37.24888,14.46275Z" style="fill: #083372"/>
        <path d="M407.65065,298.747a10.75634,10.75634,0,0,1-10.72879,10.71663H179.87825A10.74968,10.74968,0,0,1,169.14382,298.747V173.06841a10.74788,10.74788,0,0,1,10.73443-10.70535H396.92186a10.75455,10.75455,0,0,1,10.72879,10.70535Z" style="fill: #343049"/>
        <path d="M407.65065,298.747a10.75634,10.75634,0,0,1-10.72879,10.71663H179.87825A10.74968,10.74968,0,0,1,169.14382,298.747V173.06841a10.74788,10.74788,0,0,1,10.73443-10.70535H396.92186a10.75455,10.75455,0,0,1,10.72879,10.70535Z" style="fill: #083372"/>
        <path d="M399.03732,293.45182a6.45245,6.45245,0,0,1-6.43319,6.428H184.196a6.441,6.441,0,0,1-6.43319-6.428V178.38658a6.47561,6.47561,0,0,1,6.43319-6.451H392.60413a6.48725,6.48725,0,0,1,6.43319,6.451Z" style="fill: #15aaf9"/>
      </g>
      <g>
        <path d="M194.66218,192.26208c0-3.974,2.40148-6.089,6.09117-6.089h5.42581c4.45488,0,5.85337,2.73309,5.85337,5.90715v12.40762c0,3.93752-2.21355,5.90541-5.872,5.90541h-5.42577c-3.72055,0-6.07255-1.93578-6.07255-5.90541Zm7.1285,13.86248h3.20575c1.55339,0,2.40322-.57812,2.40322-2.36546V192.80722c0-1.52214-.66537-2.365-2.25739-2.365h-3.47962a2.1565,2.1565,0,0,0-2.36937,2.365v10.93409A2.18235,2.18235,0,0,0,201.79068,206.12456Z" style="fill: #fff"/>
        <path d="M279.51676,192.26208c0-3.974,2.40149-6.089,6.09118-6.089h5.42581c4.45488,0,5.85289,2.73309,5.85289,5.90715v12.40762c0,3.93752-2.21312,5.90541-5.87155,5.90541h-5.42581c-3.72094,0-6.07252-1.93578-6.07252-5.90541Zm7.12851,13.86248H289.851c1.55339,0,2.40326-.57812,2.40326-2.36546V192.80722c0-1.52214-.66541-2.365-2.25743-2.365h-3.47962a2.1565,2.1565,0,0,0-2.36937,2.365v10.93409A2.18235,2.18235,0,0,0,286.64527,206.12456Z" style="fill: #fff"/>
        <path d="M222.947,230.88424c0-3.97355,2.40153-6.08858,6.09117-6.08858H234.464c4.45489,0,5.85333,2.73309,5.85333,5.90672v12.40805c0,3.93708-2.21355,5.90541-5.872,5.90541h-5.42581c-3.7205,0-6.07251-1.93578-6.07251-5.90541Zm7.12851,13.86248h3.20574c1.55339,0,2.40322-.5777,2.40322-2.365V231.42981c0-1.52214-.66536-2.36546-2.25738-2.36546h-3.47962a2.1568,2.1568,0,0,0-2.36937,2.36546v10.93408A2.182,2.182,0,0,0,230.07555,244.74672Z" style="fill: #fff"/>
        <path d="M222.947,269.50683c0-3.97355,2.40153-6.08858,6.09117-6.08858H234.464c4.45489,0,5.85333,2.73309,5.85333,5.90672v12.40761c0,3.93752-2.21355,5.90585-5.872,5.90585h-5.42581c-3.7205,0-6.07251-1.93578-6.07251-5.90585Zm7.12851,13.86248h3.20574c1.55339,0,2.40322-.5777,2.40322-2.36547V270.0524c0-1.52214-.66536-2.36546-2.25738-2.36546h-3.47962a2.1568,2.1568,0,0,0-2.36937,2.36546v10.93408A2.182,2.182,0,0,0,230.07555,283.36931Z" style="fill: #fff"/>
        <path d="M194.66218,269.50683c0-3.97355,2.40148-6.08858,6.09117-6.08858h5.42581c4.45488,0,5.85337,2.73309,5.85337,5.90672v12.40761c0,3.93752-2.21355,5.90585-5.872,5.90585h-5.42577c-3.72055,0-6.07255-1.93578-6.07255-5.90585Zm7.1285,13.86248h3.20622c1.55292,0,2.40275-.5777,2.40275-2.36547V270.0524c0-1.52214-.66537-2.36546-2.25739-2.36546h-3.47962a2.1568,2.1568,0,0,0-2.36937,2.36546v10.93408A2.182,2.182,0,0,0,201.79068,283.36931Z" style="fill: #fff"/>
        <path d="M307.80163,192.26208c0-3.974,2.40149-6.089,6.09117-6.089h5.42581c4.45493,0,5.8529,2.73309,5.8529,5.90715v12.40762c0,3.93752-2.21312,5.90541-5.87156,5.90541h-5.42581c-3.72094,0-6.07251-1.93578-6.07251-5.90541Zm7.12851,13.86248h3.20574c1.55344,0,2.40322-.57812,2.40322-2.36546V192.80722c0-1.52214-.66536-2.365-2.25739-2.365h-3.47957a2.15651,2.15651,0,0,0-2.36941,2.365v10.93409A2.18234,2.18234,0,0,0,314.93014,206.12456Z" style="fill: #fff"/>
        <path d="M336.08606,192.26208c0-3.974,2.40192-6.089,6.09161-6.089h5.4258c4.45489,0,5.8529,2.73309,5.8529,5.90715v12.40762c0,3.93752-2.21307,5.90541-5.87156,5.90541h-5.42624c-3.72051,0-6.07251-1.93578-6.07251-5.90541Zm7.12894,13.86248h3.20574c1.5534,0,2.40323-.57812,2.40323-2.36546V192.80722c0-1.52214-.66537-2.365-2.25783-2.365H343.087a2.1565,2.1565,0,0,0-2.36937,2.365v10.93409A2.18234,2.18234,0,0,0,343.215,206.12456Z" style="fill: #fff"/>
        <path d="M226.99133,188.91311l4.68539-2.74h4.59591v24.22018h-4.63241V190.77206l-4.64889,1.16927Z" style="fill: #fff"/>
        <path d="M255.27619,188.91311l4.68492-2.74h4.59638v24.22018h-4.6324V190.77206l-4.6489,1.16927Z" style="fill: #fff"/>
        <path d="M368.41564,188.91311l4.68492-2.74h4.59638v24.22018h-4.63283V190.77206l-4.64847,1.16927Z" style="fill: #fff"/>
        <path d="M198.70647,227.53569l4.68535-2.74h4.59594v24.22018h-4.6324V229.39465l-4.64889,1.16927Z" style="fill: #fff"/>
        <path d="M255.27619,266.15828l4.68492-2.74h4.59638v24.22018h-4.6324v-19.6212l-4.6489,1.16928Z" style="fill: #fff"/>
        <path d="M279.51676,230.88424c0-3.97355,2.40149-6.08858,6.09118-6.08858h5.42581c4.45488,0,5.85289,2.73309,5.85289,5.90672v12.40805c0,3.93708-2.21312,5.90541-5.87155,5.90541h-5.42581c-3.72094,0-6.07252-1.93578-6.07252-5.90541Zm7.12851,13.86248H289.851c1.55339,0,2.40326-.5777,2.40326-2.365V231.42981c0-1.52214-.66541-2.36546-2.25743-2.36546h-3.47962a2.1568,2.1568,0,0,0-2.36937,2.36546v10.93408A2.182,2.182,0,0,0,286.64527,244.74672Z" style="fill: #fff"/>
        <path d="M307.80163,269.50683c0-3.97355,2.40149-6.08858,6.09117-6.08858h5.42581c4.45493,0,5.8529,2.73309,5.8529,5.90672v12.40761c0,3.93752-2.21312,5.90585-5.87156,5.90585h-5.42581c-3.72094,0-6.07251-1.93578-6.07251-5.90585Zm7.12851,13.86248h3.20574c1.55344,0,2.40322-.5777,2.40322-2.36547V270.0524c0-1.52214-.66536-2.36546-2.25739-2.36546h-3.47957a2.15681,2.15681,0,0,0-2.36941,2.36546v10.93408A2.182,2.182,0,0,0,314.93014,283.36931Z" style="fill: #fff"/>
        <path d="M336.08606,269.50683c0-3.97355,2.40192-6.08858,6.09161-6.08858h5.4258c4.45489,0,5.8529,2.73309,5.8529,5.90672v12.40761c0,3.93752-2.21307,5.90585-5.87156,5.90585h-5.42576c-3.721,0-6.073-1.93578-6.073-5.90585Zm7.12894,13.86248h3.20574c1.5534,0,2.40323-.5777,2.40323-2.36547V270.0524c0-1.52214-.66537-2.36546-2.25783-2.36546H343.087a2.1568,2.1568,0,0,0-2.36937,2.36546v10.93408A2.182,2.182,0,0,0,343.215,283.36931Z" style="fill: #fff"/>
        <path d="M255.27619,227.53569l4.68492-2.74h4.59638v24.22018h-4.6324V229.39465l-4.6489,1.16927Z" style="fill: #fff"/>
        <path d="M311.84592,227.53569l4.68492-2.74h4.59637v24.22018h-4.63235V229.39465l-4.64894,1.16927Z" style="fill: #fff"/>
        <path d="M283.56106,266.15828l4.68491-2.74h4.59638v24.22018H288.21v-19.6212l-4.64889,1.16928Z" style="fill: #fff"/>
        <path d="M364.37092,230.88424c0-3.97355,2.402-6.08858,6.09161-6.08858h5.42581c4.45488,0,5.85289,2.73309,5.85289,5.90672v12.40805c0,3.93708-2.21312,5.90541-5.87156,5.90541h-5.42624c-3.7205,0-6.07251-1.93578-6.07251-5.90541Zm7.12894,13.86248h3.20575c1.55339,0,2.40322-.5777,2.40322-2.365V231.42981c0-1.52214-.66537-2.36546-2.25782-2.36546h-3.47919a2.1568,2.1568,0,0,0-2.36937,2.36546v10.93408A2.182,2.182,0,0,0,371.49986,244.74672Z" style="fill: #fff"/>
        <path d="M368.41564,266.15828l4.68492-2.74h4.59638v24.22018h-4.63283v-19.6212l-4.64847,1.16928Z" style="fill: #fff"/>
        <path d="M340.13078,227.53569l4.68492-2.74h4.59638v24.22018h-4.6324V229.39465l-4.6489,1.16927Z" style="fill: #fff"/>
      </g>
      <g>
        <path d="M130.58937,288.92142a8.51633,8.51633,0,0,1-12.03434,0h0a8.5166,8.5166,0,0,1,0-12.03392l16.76223-16.76657a8.50873,8.50873,0,0,1,12.03392,0h0a8.51766,8.51766,0,0,1,0,12.03478Z" style="fill: #083372"/>
        <path d="M97.43339,336.19292C90.52585,343.0966,78.81,342.58922,71.284,335.0588h0c-7.54041-7.53129-8.04258-19.24272-1.135-26.1503l30.06525-30.06092c6.90759-6.91192,18.61424-6.405,26.14553,1.13065h0c7.53086,7.53042,8.04218,19.238,1.13022,26.1451Z" style="fill: #083372"/>
        <path d="M244.45539,221.323a64.34516,64.34516,0,1,0-64.34277,64.34277A64.344,64.344,0,0,0,244.45539,221.323Z" style="fill: #fff"/>
        <path d="M229.12415,221.323a49.01175,49.01175,0,1,0-49.01153,49.00719A49.01436,49.01436,0,0,0,229.12415,221.323Z" style="fill: #15aaf9"/>
      </g>
      <path d="M192.63222,224.5053l6.20011-3.62589h6.0825v32.05268h-6.13067V226.96538l-6.15194,1.54732Z" style="fill: #fff"/>
      <path d="M187.27933,194.00341c0,5.25393,3.11286,7.81558,8.03649,7.81558h7.18107c4.84156,0,7.7704-2.60462,7.7704-7.81558V182.736a48.99933,48.99933,0,0,0-6.13068-4.1107v14.41414c0,2.36546-1.125,3.13022-3.18013,3.13022H196.7134c-1.4757,0-3.3051-.48481-3.3051-3.15366V178.54587a2.85465,2.85465,0,0,1,3.13583-3.13066H197.16a48.6182,48.6182,0,0,0-8.67539-2.3429,8.866,8.866,0,0,0-1.2053,4.75176Z" style="fill: #fff"/>
    </g>
  </g>
</svg>
