<svg xmlns="http://www.w3.org/2000/svg" width="500" height="500" viewBox="0 0 500 500">
  <g id="DESIGNED_BY_FREEPIK" data-name="DESIGNED BY FREEPIK">
    <g>
      <path d="M335.32575,404.50057l1.06345-22.88374a5.78644,5.78644,0,0,1,.18857-2.31547,77.02879,77.02879,0,0,0,14.68446-7.49172,5.79949,5.79949,0,0,1,5.13038.9182l20.40094,10.43151a4.82486,4.82486,0,0,0,6.76208-.90632v-.00084l14.01429-18.34878a4.824,4.824,0,0,0-.90632-6.76209l-15.43023-16.93368a5.78939,5.78939,0,0,1-1.50769-1.77949,77.31447,77.31447,0,0,0,5.09138-15.67147,5.80029,5.80029,0,0,1,4.27667-2.9797l21.80075-7.04918a4.82386,4.82386,0,0,0,4.14168-5.42174v-.00085l-3.06634-22.88373a4.82324,4.82324,0,0,0-5.42173-4.14084l-22.88458-1.06345a5.76729,5.76729,0,0,1-2.31462-.18941,77.05336,77.05336,0,0,0-7.49173-14.68446,5.79955,5.79955,0,0,1,.91821-5.13039L385.206,238.812a4.82483,4.82483,0,0,0-.90546-6.76209h-.00085l-18.34878-14.01343a4.825,4.825,0,0,0-6.76293.90546l-16.93283,15.43023a5.78058,5.78058,0,0,1-1.78035,1.50769,77.34556,77.34556,0,0,0-15.67146-5.09131,5.79741,5.79741,0,0,1-2.97885-4.27589l-7.04913-21.8016a4.8246,4.8246,0,0,0-5.42264-4.14083h0l-22.88458,3.06549a4.82513,4.82513,0,0,0-4.14084,5.42258l-1.0626,22.88374a5.78543,5.78543,0,0,1-.18942,2.31546,77.05592,77.05592,0,0,0-14.68445,7.49173,5.79952,5.79952,0,0,1-5.13039-.9182l-20.40093-10.43151a4.82487,4.82487,0,0,0-6.76209.90631h0l-14.01428,18.34963a4.82487,4.82487,0,0,0,.90631,6.76209l15.43023,16.93367a5.78942,5.78942,0,0,1,1.50769,1.7795,77.30048,77.30048,0,0,0-5.09131,15.67231,5.8001,5.8001,0,0,1-4.27674,2.978l-21.80075,7.04918a4.82579,4.82579,0,0,0-4.14168,5.42258h0l3.06634,22.88459a4.82326,4.82326,0,0,0,5.42173,4.14083l22.88458,1.06345a5.78671,5.78671,0,0,1,2.31547.18857,77.02559,77.02559,0,0,0,7.49088,14.68446,5.80356,5.80356,0,0,1-.91736,5.13124L232.44705,374.746a4.82411,4.82411,0,0,0,.90631,6.76209h0L251.703,395.52239a4.82483,4.82483,0,0,0,6.76209-.90546l16.93282-15.43109a5.80385,5.80385,0,0,1,1.78035-1.50768,77.29345,77.29345,0,0,0,15.67146,5.09131,5.80045,5.80045,0,0,1,2.97886,4.27674l7.04918,21.8016a4.82454,4.82454,0,0,0,5.42258,4.14083h0l22.88459-3.06549A4.82508,4.82508,0,0,0,335.32575,404.50057Zm-59.38593-93.31529A33.181,33.181,0,1,1,313.232,339.66657,33.18023,33.18023,0,0,1,275.93982,311.18528Z" style="fill: #083372"/>
      <path d="M126.54448,191.976l16.84279-1.01843a4.24752,4.24752,0,0,1,1.7107-.04332,56.67845,56.67845,0,0,0,6.63892,10.16564,4.271,4.271,0,0,1-.26926,3.82995l-6.03749,15.7598a3.55239,3.55239,0,0,0,1.1942,4.88067h.00085l14.53836,8.82273a3.55244,3.55244,0,0,0,4.88066-1.19426L177.23508,220.549a4.24469,4.24469,0,0,1,1.18492-1.24438,56.93787,56.93787,0,0,0,11.87633,2.4981,4.27236,4.27236,0,0,1,2.51763,2.89815l6.87421,15.41325a3.55409,3.55409,0,0,0,4.29628,2.60681h.00084l16.51917-4.0423a3.554,3.554,0,0,0,2.60682-4.29627l-1.01844-16.84279a4.24789,4.24789,0,0,1-.04332-1.7107A56.80546,56.80546,0,0,0,232.216,209.19a4.26946,4.26946,0,0,1,3.82911.26926l15.7598,6.03755a3.55436,3.55436,0,0,0,4.88151-1.19426h0l8.82189-14.53921a3.55364,3.55364,0,0,0-1.19426-4.88152l-12.62976-11.19a4.24462,4.24462,0,0,1-1.24437-1.18491,56.94578,56.94578,0,0,0,2.49809-11.87719,4.27328,4.27328,0,0,1,2.89816-2.51678l15.41324-6.875a3.55283,3.55283,0,0,0,2.60682-4.29543v-.00085l-4.0423-16.51832a3.55358,3.55358,0,0,0-4.29628-2.60766L248.67493,138.834a4.24779,4.24779,0,0,1-1.71075.04332,56.72817,56.72817,0,0,0-6.63887-10.16564,4.27091,4.27091,0,0,1,.2692-3.82995l6.03755-15.7598a3.55321,3.55321,0,0,0-1.19426-4.88067v-.00085l-14.53921-8.82188a3.55362,3.55362,0,0,0-4.88151,1.19426l-11.19,12.62975a4.24456,4.24456,0,0,1-1.18492,1.24438,56.94571,56.94571,0,0,0-11.87718-2.4981,4.271,4.271,0,0,1-2.51672-2.89815l-6.87512-15.41325a3.55328,3.55328,0,0,0-4.29627-2.60681h0l-16.51832,4.0423a3.55356,3.55356,0,0,0-2.60766,4.29627l1.01849,16.84279a4.24894,4.24894,0,0,1,.04326,1.7107,56.80073,56.80073,0,0,0-10.16564,6.63892,4.271,4.271,0,0,1-3.82995-.26926l-15.75975-6.03755a3.55251,3.55251,0,0,0-4.88072,1.19426h0l-8.82274,14.53921a3.55364,3.55364,0,0,0,1.19426,4.88152l12.62976,11.18917a4.26877,4.26877,0,0,1,1.24437,1.18576,56.94578,56.94578,0,0,0-2.49809,11.87719,4.27115,4.27115,0,0,1-2.89816,2.51678l-15.41324,6.875A3.55335,3.55335,0,0,0,118.2059,172.85h0l4.04231,16.51832A3.55317,3.55317,0,0,0,126.54448,191.976Zm63.678-50.81971a24.43981,24.43981,0,1,1-17.93088,29.54814A24.43966,24.43966,0,0,1,190.22244,141.15627Z" style="fill: #04d9c3"/>
      <path d="M90.88744,310.42422l11.90692-.7203a3.01027,3.01027,0,0,1,1.2087-.03057,40.08319,40.08319,0,0,0,4.69379,7.18679,3.02208,3.02208,0,0,1-.19021,2.707l-4.2683,11.14075a2.51166,2.51166,0,0,0,.84431,3.45112h0l10.27776,6.23631a2.512,2.512,0,0,0,3.45027-.8443l7.91048-8.92807a3.01591,3.01591,0,0,1,.83757-.88,40.232,40.232,0,0,0,8.39627,1.76591,3.01981,3.01981,0,0,1,1.77956,2.04876l4.85937,10.89612a2.5116,2.5116,0,0,0,3.03746,1.84236h0l11.67758-2.85739a2.51174,2.51174,0,0,0,1.84235-3.03661l-.71945-11.90692a2.995,2.995,0,0,1-.03057-1.2087,40.11067,40.11067,0,0,0,7.18679-4.69379,3.02228,3.02228,0,0,1,2.707.19026l11.14075,4.26825a2.51215,2.51215,0,0,0,3.45027-.84431h0l6.23631-10.27776a2.51049,2.51049,0,0,0-.8443-3.45027l-8.92807-7.91048a3.00355,3.00355,0,0,1-.87913-.83751,40.28784,40.28784,0,0,0,1.76591-8.39634,3.01957,3.01957,0,0,1,2.04882-1.77949l10.89521-4.85943a2.51276,2.51276,0,0,0,1.84321-3.03746h0l-2.85739-11.67758a2.51261,2.51261,0,0,0-3.03746-1.84235l-11.906.71944a3.01493,3.01493,0,0,1-1.20961.03058,40.06928,40.06928,0,0,0-4.69294-7.18594,3.0166,3.0166,0,0,1,.19026-2.707l4.2674-11.14076a2.51129,2.51129,0,0,0-.84431-3.45112h0l-10.27691-6.23631a2.51131,2.51131,0,0,0-3.45112.84431l-7.91042,8.92806a2.99265,2.99265,0,0,1-.83757.87913,40.28718,40.28718,0,0,0-8.39634-1.7659,3.0216,3.0216,0,0,1-1.77949-2.04876l-4.85943-10.89528a2.51227,2.51227,0,0,0-3.03661-1.8432h0l-11.67752,2.85739a2.512,2.512,0,0,0-1.8432,3.03746l.71938,11.90607a3.01457,3.01457,0,0,1,.03143,1.20954,40.07866,40.07866,0,0,0-7.18679,4.693,3.01657,3.01657,0,0,1-2.707-.19027l-11.1407-4.26739a2.51152,2.51152,0,0,0-3.45117.8443h0l-6.23631,10.27777a2.512,2.512,0,0,0,.8443,3.45027l8.92812,7.91048a3.006,3.006,0,0,1,.87993.83751,40.23277,40.23277,0,0,0-1.76591,8.39633,3.02513,3.02513,0,0,1-2.04876,1.7795L86.8358,293.86683a2.51108,2.51108,0,0,0-1.84236,3.03661h0L87.85,308.581A2.51291,2.51291,0,0,0,90.88744,310.42422Zm45.0149-35.9246a17.27674,17.27674,0,1,1-12.67556,20.88764A17.27643,17.27643,0,0,1,135.90234,274.49962Z" style="fill: #15aaf9"/>
    </g>
  </g>
</svg>
