<svg xmlns="http://www.w3.org/2000/svg" width="500" height="500" viewBox="0 0 500 500">
  <g id="DESIGNED_BY_FREEPIK" data-name="DESIGNED BY FREEPIK">
    <g>
      <path d="M250.25882,189.56857a39.69858,39.69858,0,0,0-11.57415,1.71867,45.93892,45.93892,0,0,0-90.82814,0,39.71995,39.71995,0,1,0-11.57415,77.71689H250.25882a39.71778,39.71778,0,0,0,0-79.43556Z" style="fill: #083372"/>
      <path d="M363.71762,240.75707a39.69848,39.69848,0,0,0-11.57415,1.71832,45.939,45.939,0,0,0-90.82814,0,39.71995,39.71995,0,1,0-11.57415,77.71689H363.71762a39.7176,39.7176,0,0,0,0-79.43521Z" style="fill: #15aaf9"/>
      <g>
        <path d="M361.35489,209.13554a1.75851,1.75851,0,0,1-1.67863-1.23966A93.90444,93.90444,0,0,0,226.6417,152.14451a1.75636,1.75636,0,1,1-1.61893-3.11741,97.427,97.427,0,0,1,138.01075,57.83631,1.75669,1.75669,0,0,1-1.1624,2.19487A1.73669,1.73669,0,0,1,361.35489,209.13554Z" style="fill: #083372"/>
        <polygon points="376.999 199.182 365.499 232.254 342.604 205.76 376.999 199.182" style="fill: #083372"/>
      </g>
      <g>
        <path d="M242.21648,361.88456a97.35232,97.35232,0,0,1-89.24714-58.37994,1.7555,1.7555,0,0,1,3.21714-1.40612,93.91078,93.91078,0,0,0,138.49784,40.32023,1.75531,1.75531,0,0,1,1.96134,2.91162A97.41189,97.41189,0,0,1,242.21648,361.88456Z" style="fill: #083372"/>
        <polygon points="139.964 312.718 147.643 278.557 173.393 302.286 139.964 312.718" style="fill: #083372"/>
      </g>
    </g>
  </g>
</svg>
