<svg xmlns="http://www.w3.org/2000/svg" width="500" height="500" viewBox="0 0 500 500">
  <g id="DESIGNED_BY_FREEPIK" data-name="DESIGNED BY FREEPIK">
    <g>
      <g>
        <polygon points="281.343 345.269 168.143 345.269 177.582 250.413 271.91 250.413 281.343 345.269" style="fill: #083372"/>
        <rect x="154.36539" y="345.26949" width="140.75044" height="8.25305" style="fill: #083372"/>
        <path d="M377.66559,287.19529a13.79027,13.79027,0,0,1-13.76751,13.7442H85.55324A13.77461,13.77461,0,0,1,71.811,287.19529V126.04788a13.77918,13.77918,0,0,1,13.74227-13.74953H363.89808a13.79483,13.79483,0,0,1,13.76751,13.74953Z" style="fill: #343049"/>
        <path d="M377.66559,302.30146a13.80068,13.80068,0,0,1-13.76751,13.75486H85.55324A13.785,13.785,0,0,1,71.811,302.30146V141.14674a13.77819,13.77819,0,0,1,13.74227-13.74487H363.89808a13.79385,13.79385,0,0,1,13.76751,13.74487Z" style="fill: #083372"/>
        <path d="M377.66559,287.19529a13.79027,13.79027,0,0,1-13.76751,13.7442H85.55324A13.77461,13.77461,0,0,1,71.811,287.19529V126.04788a13.77918,13.77918,0,0,1,13.74227-13.74953H363.89808a13.79483,13.79483,0,0,1,13.76751,13.74953Z" style="fill: #083372"/>
        <rect x="71.81097" y="287.19529" width="305.85461" height="15.10618" style="fill: #083372"/>
        <path d="M366.626,289.78543a8.26084,8.26084,0,0,1-8.26037,8.23308H91.10092a8.25072,8.25072,0,0,1-8.24506-8.23308V132.85508a8.27108,8.27108,0,0,1,8.24506-8.26037H358.36565a8.28117,8.28117,0,0,1,8.26037,8.26037Z" style="fill: #8fddff"/>
        <g>
          <g>
            <polygon points="253.57 136.455 172.387 136.455 172.387 286.158 284.626 286.158 284.626 167.513 253.57 136.455" style="fill: #fff"/>
            <polygon points="253.563 167.519 284.626 167.519 253.563 136.455 253.563 167.519" style="fill: #083372"/>
          </g>
          <rect x="179.50796" y="248.94158" width="97.99676" height="8.94801" style="fill: #083372"/>
          <rect x="179.50796" y="231.13742" width="97.99676" height="8.94735" style="fill: #083372"/>
          <rect x="179.50796" y="213.33259" width="97.99676" height="8.94801" style="fill: #083372"/>
          <rect x="179.50796" y="194.60381" width="97.99676" height="8.94735" style="fill: #083372"/>
          <rect x="179.50796" y="176.79899" width="66.25535" height="8.94801" style="fill: #083372"/>
        </g>
      </g>
      <g>
        <g>
          <path d="M416.79732,247.23878a11.43221,11.43221,0,0,1,11.39171,11.3937V380.31531c0,6.26667-5.13036,7.38634-11.39171,7.38634H318.45108a11.41126,11.41126,0,0,1-11.38172-11.38372V258.63248a11.42326,11.42326,0,0,1,11.38172-11.3937Z" style="fill: #15aaf9"/>
          <path d="M376.66241,380.336a4.4742,4.4742,0,0,1-4.47733,4.474H363.068a4.47662,4.47662,0,0,1-4.47667-4.474h0a4.47379,4.47379,0,0,1,4.47667-4.47468h9.11709a4.47138,4.47138,0,0,1,4.47733,4.47468Z" style="fill: #083372"/>
          <path d="M422.27857,370.21368a2.88769,2.88769,0,0,1-2.84517,2.85043H315.82965a2.88868,2.88868,0,0,1-2.85042-2.85043V256.61349a2.88868,2.88868,0,0,1,2.85042-2.85043H419.4334a2.88769,2.88769,0,0,1,2.84517,2.85043Z" style="fill: #8fddff"/>
        </g>
        <g>
          <g>
            <polygon points="384.523 262.961 329.802 262.961 329.802 363.866 405.456 363.866 405.456 283.895 384.523 262.961" style="fill: #fff"/>
            <polygon points="384.519 283.9 405.456 283.9 384.519 262.961 384.519 283.9" style="fill: #083372"/>
          </g>
          <rect x="334.60244" y="338.78115" width="66.05358" height="6.03102" style="fill: #083372"/>
          <rect x="334.60244" y="326.78035" width="66.05358" height="6.03102" style="fill: #083372"/>
          <rect x="334.60244" y="314.77955" width="66.05358" height="6.03102" style="fill: #083372"/>
          <rect x="334.60244" y="302.15501" width="66.05358" height="6.03102" style="fill: #083372"/>
          <rect x="334.60244" y="290.15422" width="44.65877" height="6.03102" style="fill: #083372"/>
        </g>
      </g>
      <g>
        <g>
          <path d="M246.96286,281.67817h44.47179a6.85313,6.85313,0,0,1,6.85313,6.85313v92.31988a6.85047,6.85047,0,0,1-6.85047,6.85047H246.96552a6.8538,6.8538,0,0,1-6.8538-6.8538V288.5293A6.85113,6.85113,0,0,1,246.96286,281.67817Z" style="fill: #15aaf9"/>
          <path d="M294.32567,370.48927a2.74551,2.74551,0,0,1-2.73859,2.73859h-44.78a2.7499,2.7499,0,0,1-2.74319-2.73859v-76.757a2.7446,2.7446,0,0,1,2.74319-2.73792h44.78a2.74024,2.74024,0,0,1,2.73859,2.73792Z" style="fill: #8fddff"/>
          <rect x="262.13493" y="286.27998" width="14.12963" height="1.35931" style="fill: #083372"/>
          <path d="M273.40415,383.17106a1.49732,1.49732,0,0,1-1.4991,1.50176h-5.41527a1.497,1.497,0,0,1-1.4991-1.50176v-5.41794a1.49922,1.49922,0,0,1,1.4991-1.50442h5.41527a1.4996,1.4996,0,0,1,1.4991,1.50442Z" style="fill: #083372"/>
        </g>
        <g>
          <g>
            <polygon points="277.811 308.661 249.579 308.661 249.579 360.719 288.61 360.719 288.61 319.461 277.811 308.661" style="fill: #fff"/>
            <polygon points="277.808 319.463 288.61 319.463 277.808 308.661 277.808 319.463" style="fill: #062851"/>
          </g>
          <rect x="252.05594" y="347.77709" width="34.07793" height="3.11203" style="fill: #062851"/>
          <rect x="252.05594" y="341.58564" width="34.07793" height="3.11203" style="fill: #062851"/>
          <rect x="252.05594" y="335.39419" width="34.07793" height="3.11203" style="fill: #062851"/>
          <rect x="252.05594" y="328.88122" width="34.07793" height="3.11203" style="fill: #062851"/>
          <rect x="252.05594" y="322.68977" width="23.0397" height="3.11203" style="fill: #062851"/>
        </g>
      </g>
    </g>
  </g>
</svg>
