<?xml version="1.0" encoding="UTF-8"?>
<svg id="Camada_1" data-name="Camada 1" xmlns="http://www.w3.org/2000/svg" width="1865.4581" height="843.38942" xmlns:xlink="http://www.w3.org/1999/xlink" viewBox="0 0 1865.4581 843.38942">
  <defs>
    <style>
      .cls-1 {
        fill: url(#Gradiente_sem_nome_13);
      }

      .cls-2 {
        fill: url(#Gradiente_sem_nome_13-3);
      }

      .cls-3 {
        fill: #2c1dfe;
      }

      .cls-4 {
        fill: url(#Gradiente_sem_nome_13-2);
      }
    </style>
    <linearGradient id="Gradiente_sem_nome_13" data-name="Gradiente sem nome 13" x1="1549.93704" y1="473.87354" x2="1844.46869" y2="473.87354" gradientTransform="matrix(1, 0, 0, 1, 0, 0)" gradientUnits="userSpaceOnUse">
      <stop offset="0" stop-color="#04d9c3"/>
      <stop offset="1" stop-color="#2c1dfe"/>
    </linearGradient>
    <linearGradient id="Gradiente_sem_nome_13-2" data-name="Gradiente sem nome 13" x1="1482.71867" y1="529.88707" x2="1632.0995" y2="529.88707" xlink:href="#Gradiente_sem_nome_13"/>
    <linearGradient id="Gradiente_sem_nome_13-3" data-name="Gradiente sem nome 13" x1="1701.21258" y1="429.34554" x2="1786.09067" y2="429.34554" xlink:href="#Gradiente_sem_nome_13"/>
  </defs>
  <g>
    <path d="M12.27909,571.47908l24.42013-52.59782c22.54135,14.55955,56.82608,24.42013,87.81994,24.42013,33.81403,0,46.4948-8.9232,46.4948-23.01205,0-41.32514-152.63184,.9414-152.63184-100.03,0-47.90288,43.20794-81.71691,116.93903-81.71691,34.75141,0,73.26441,7.98582,97.21384,22.07467l-24.42013,52.12712c-24.89083-14.08885-49.78166-18.78379-72.79371-18.78379-32.87263,0-46.96148,10.33128-46.96148,23.47873,0,43.20794,152.62782,1.4121,152.62782,100.9714,0,46.9655-43.67462,80.30883-119.28449,80.30883-42.73724,0-85.94518-11.73936-109.42391-27.24031Z" style="fill: #2c1dfe;"/>
    <path d="M532.14221,342.29999l-106.60775,252.66185h-75.60987l-106.13704-252.66185h75.60987l69.97755,171.88633,72.32301-171.88633h70.44423Z" style="fill: #2c1dfe;"/>
    <path d="M801.22227,489.29549h-191.14082c7.04442,31.46455,33.81403,50.71904,72.32301,50.71904,26.76961,0,46.0241-7.9818,63.39981-24.42013l38.97968,42.26654c-23.48275,26.76961-58.70487,40.85846-104.25826,40.85846-87.35326,0-144.17532-54.9473-144.17532-130.0905,0-75.60987,57.76346-130.08647,134.78141-130.08647,74.20179,0,131.49858,49.78166,131.49858,131.02788,0,5.63634-.9414,13.61814-1.40808,19.72519Zm-192.08222-42.73724h124.45415c-5.16564-31.93525-29.11909-52.59782-61.99173-52.59782-33.34333,0-57.29679,20.19187-62.46243,52.59782Z" style="fill: #2c1dfe;"/>
    <path d="M851.45452,246.49423h73.26039v348.46761h-73.26039V246.49423Z" style="fill: #2c1dfe;"/>
    <path d="M1174.0738,582.75177c-15.03025,10.80198-37.1009,15.96763-59.64627,15.96763-59.64224,0-94.39366-30.52717-94.39366-90.64012v-103.78756h-38.97968v-56.35538h38.97968v-61.52103h73.26039v61.52103h62.93313v56.35538h-62.93313v102.85018c0,21.59995,11.74339,33.34333,31.46858,33.34333,10.79796,0,21.59995-3.28686,29.58577-9.3939l19.72519,51.66044Z" style="fill: #2c1dfe;"/>
    <path d="M1188.62128,468.6289c0-76.08057,58.70084-130.08647,139.00968-130.08647,80.30481,0,138.543,54.0059,138.543,130.08647s-58.23819,130.0905-138.543,130.0905c-80.30883,0-139.00968-54.00992-139.00968-130.0905Zm203.34686,0c0-43.67462-27.70699-69.97353-64.33719-69.97353s-64.80789,26.29891-64.80789,69.97353c0,43.67864,28.17769,69.97755,64.80789,69.97755s64.33719-26.29891,64.33719-69.97755Z" style="fill: #2c1dfe;"/>
  </g>
  <g>
    <path d="M1838.02663,374.30514c-6.67381-11.43842-17.91502-19.61022-30.84303-22.41947-33.9544-7.37875-86.92108-12.69723-146.43779,3.85617-36.10487,10.04323-69.80331,26.63859-100.15961,49.32242-8.91869,6.66542-12.67835,17.87725-9.57747,28.56248,3.12815,10.79852,12.40771,18.33672,23.63632,19.2074,9.36557,.72801,18.36819,3.06731,26.75818,6.95285,19.37314,8.97534,30.38776,23.91117,35.19433,31.95708,4.6702,8.20327,12.24616,25.14061,10.52158,46.42505-.74899,9.21452-3.14703,18.20245-7.12489,26.70993-4.7709,10.20478-2.77778,21.99567,5.07931,30.03739,5.11918,5.23666,11.89579,7.99976,18.83815,7.99976,3.6065,0,7.25706-.7469,10.73978-2.27845,10.71041-4.71006,21.20891-10.05372,31.20389-15.88203,22.2789-12.99515,42.81645-28.81215,61.03987-47.0104,43.7144-43.64936,65.16249-92.37174,75.45749-125.55827,3.9212-12.63429,2.34349-26.44138-4.32612-37.8819Zm-20.54174,30.16537c-9.42642,30.37937-29.04503,74.96655-68.98718,114.84996-24.22377,24.1881-52.59323,43.52768-84.33002,57.48163-.15735,.07133-.25176,.08602-.24757,.09021-.02308-.00839-.1049-.05455-.22449-.17623-.33359-.34198-.23288-.55807-.11749-.80564,5.29961-11.33142,8.4928-23.32162,9.49145-35.63701,2.18404-26.89246-6.35491-48.29648-13.91199-61.53291l-.1112-.19092c-7.78996-13.07698-22.21386-31.04444-46.69779-42.38845-11.21603-5.1947-23.22301-8.31866-35.69156-9.28375-.27274-.02308-.50982-.03986-.64199-.49723-.04825-.16365-.04825-.25806-.05245-.25806,.01259-.02098,.07133-.09651,.2098-.19931,8.57672-6.40946,17.56465-12.36365,26.70993-17.69892,20.36131-11.87481,42.17655-21.09142,64.84149-27.39598,54.38075-15.12465,102.84927-10.25094,133.93148-3.4974,5.89964,1.27979,10.82999,4.86531,13.87842,10.09359,3.04843,5.22408,3.74077,11.27897,1.95116,17.04643Z" style="fill: url(#Gradiente_sem_nome_13);"/>
    <path d="M1588.57592,470.39878c-15.10157-3.97366-30.82625-1.84206-44.28087,6.00244l-.0021,.0021c-1.78122,1.04062-3.52468,2.19453-5.43807,3.6086l-.70284,.56856c-12.01118,10.45655-22.65025,22.3922-31.6235,35.48176-9.54181,13.91828-17.17441,29.09538-22.68382,45.10749-1.95746,5.68354-1.34273,11.91887,1.68681,17.10728,3.02535,5.19261,8.14872,8.79701,14.05675,9.89218,11.34611,2.10432,22.83698,3.15962,34.32575,3.15962,5.37513,0,10.74817-.23078,16.10652-.69445,15.8107-1.36581,31.43887-4.74783,46.56771-10.09778l.8476-.33988c2.04767-.91474,3.91071-1.86304,5.70033-2.90576,27.81349-16.22401,37.2441-52.04985,21.02429-79.86543-7.84661-13.45252-20.483-23.05098-35.58456-27.02673Zm16.41703,64.68204c-2.20292,8.36691-7.52141,15.37011-14.97359,19.71722-.83711,.48674-1.73297,.9504-2.74002,1.41407-12.77486,4.46879-26.06374,7.3221-39.49738,8.48231-12.33637,1.0616-24.80492,.70074-37.10983-1.08048,4.50865-11.58528,10.32857-22.61249,17.33177-32.82986,7.62212-11.11742,16.64991-21.28024,26.83371-30.20523,.89166-.64409,1.73506-1.19587,2.57637-1.68471,15.41207-8.99213,35.26566-3.76175,44.25359,11.65032,4.3471,7.45218,5.52829,16.16527,3.32537,24.53638Z" style="fill: url(#Gradiente_sem_nome_13-2);"/>
    <path d="M1722.26613,392.67753c-20.21865,11.79299-27.07289,37.83574-15.282,58.05439,7.88017,13.51127,22.12155,21.05366,36.74057,21.05366,7.25496,0,14.60643-1.86095,21.31381-5.77166,20.21655-11.79089,27.07079-37.83364,15.282-58.05439-11.79508-20.21655-37.83155-27.07498-58.05439-15.282Zm37.2462,40.84221c-1.11615,4.2443-3.81421,7.79625-7.59274,10.00127-3.77644,2.20502-8.19697,2.80925-12.44337,1.68471-4.2443-1.11615-7.79625-3.81421-10.00127-7.59274-2.20502-3.77854-2.80296-8.19697-1.68471-12.44337,1.11825-4.2443,3.81421-7.79625,7.59484-9.99918,2.53441-1.47911,5.35835-2.23649,8.22425-2.23649,1.40568,0,2.82184,.18253,4.21703,.55178,4.2443,1.11615,7.79625,3.81421,10.00127,7.59274s2.80296,8.19697,1.68471,12.44127Z" style="fill: url(#Gradiente_sem_nome_13-3);"/>
  </g>
</svg>